<svg width="24" height="24" viewBox="0 0 24 24" fill="none" xmlns="http://www.w3.org/2000/svg">
<path fill-rule="evenodd" clip-rule="evenodd" d="M12.5303 11.5303L12 12.0607L11.4697 11.5303L5.46967 5.53033C5.17678 5.23744 5.17678 4.76256 5.46967 4.46967C5.76256 4.17678 6.23744 4.17678 6.53033 4.46967L12 9.93934L17.4697 4.46967C17.7626 4.17678 18.2374 4.17678 18.5303 4.46967C18.8232 4.76256 18.8232 5.23744 18.5303 5.53033L12.5303 11.5303ZM12.5303 19.5303L12 20.0607L11.4697 19.5303L5.46967 13.5303C5.17678 13.2374 5.17678 12.7626 5.46967 12.4697C5.76256 12.1768 6.23744 12.1768 6.53033 12.4697L12 17.9393L17.4697 12.4697C17.7626 12.1768 18.2374 12.1768 18.5303 12.4697C18.8232 12.7626 18.8232 13.2374 18.5303 13.5303L12.5303 19.5303Z" fill="white"/>
</svg>
