<svg width="24" height="24" viewBox="0 0 24 24" fill="none" xmlns="http://www.w3.org/2000/svg">
<path fill-rule="evenodd" clip-rule="evenodd" d="M12.5303 4.46968L12 3.93935L11.4697 4.46968L5.46967 10.4697C5.17678 10.7626 5.17678 11.2374 5.46967 11.5303C5.76256 11.8232 6.23744 11.8232 6.53033 11.5303L12 6.06067L17.4697 11.5303C17.7626 11.8232 18.2374 11.8232 18.5303 11.5303C18.8232 11.2374 18.8232 10.7626 18.5303 10.4697L12.5303 4.46968ZM12.5303 12.4697L12 11.9393L11.4697 12.4697L5.46967 18.4697C5.17678 18.7626 5.17678 19.2374 5.46967 19.5303C5.76256 19.8232 6.23744 19.8232 6.53033 19.5303L12 14.0607L17.4697 19.5303C17.7626 19.8232 18.2374 19.8232 18.5303 19.5303C18.8232 19.2374 18.8232 18.7626 18.5303 18.4697L12.5303 12.4697Z" fill="white"/>
</svg>
