<svg width="24" height="24" viewBox="0 0 24 24" fill="none" xmlns="http://www.w3.org/2000/svg">
<path fill-rule="evenodd" clip-rule="evenodd" d="M4.46966 11.4697L3.93933 12L4.46966 12.5303L10.4697 18.5303C10.7626 18.8232 11.2374 18.8232 11.5303 18.5303C11.8232 18.2374 11.8232 17.7626 11.5303 17.4697L6.06065 12L11.5303 6.53033C11.8232 6.23744 11.8232 5.76256 11.5303 5.46967C11.2374 5.17678 10.7626 5.17678 10.4697 5.46967L4.46966 11.4697ZM12.4697 11.4697L11.9393 12L12.4697 12.5303L18.4697 18.5303C18.7626 18.8232 19.2374 18.8232 19.5303 18.5303C19.8232 18.2374 19.8232 17.7626 19.5303 17.4697L14.0607 12L19.5303 6.53033C19.8232 6.23744 19.8232 5.76256 19.5303 5.46967C19.2374 5.17678 18.7626 5.17678 18.4697 5.46967L12.4697 11.4697Z" fill="white"/>
</svg>
