<svg width="24" height="24" viewBox="0 0 24 24" fill="none" xmlns="http://www.w3.org/2000/svg">
<path fill-rule="evenodd" clip-rule="evenodd" d="M2.75 11C2.75 6.44365 6.44365 2.75 11 2.75C15.5563 2.75 19.25 6.44365 19.25 11C19.25 15.5563 15.5563 19.25 11 19.25C6.44365 19.25 2.75 15.5563 2.75 11ZM11 1.25C5.61522 1.25 1.25 5.61522 1.25 11C1.25 16.3848 5.61522 20.75 11 20.75C13.4224 20.75 15.6385 19.8666 17.3437 18.4043L20.9697 22.0303C21.2626 22.3232 21.7374 22.3232 22.0303 22.0303C22.3232 21.7374 22.3232 21.2626 22.0303 20.9697L18.4043 17.3437C19.8666 15.6385 20.75 13.4224 20.75 11C20.75 5.61522 16.3848 1.25 11 1.25Z" fill="white"/>
</svg>
